{
  "accessors": [
    {
      "bufferView": 2,
      "componentType": 5126,
      "count": 626,
      "max": [
        0.9959049820899963,
        0.9959049820899963,
        2.423393487930298
      ],
      "min": [
        -0.9959049224853516,
        -0.9959050416946411,
        -2.153472900390625
      ],
      "type": "VEC3"
    },
    {
      "bufferView": 2,
      "byteOffset": 7512,
      "componentType": 5126,
      "count": 626,
      "max": [
        0.9852920770645142,
        0.9852920770645142,
        0.9884157776832581
      ],
      "min": [
        -0.9852920770645142,
        -0.9852870106697083,
        -0.7298503518104553
      ],
      "type": "VEC3"
    },
    {
      "bufferView": 3,
      "componentType": 5126,
      "count": 626,
      "max": [
        1.0,
        0.9999999403953552,
        0.9180814027786255,
        1.0
      ],
      "min": [
        -0.9999969601631165,
        -1.0,
        -0.9185820817947388,
        1.0
      ],
      "type": "VEC4"
    },
    {
      "bufferView": 1,
      "componentType": 5126,
      "count": 626,
      "max": [
        0.9946745038032532,
        0.9304665923118591
      ],
      "min": [
        0.00030723988311365247,
        0.00030723988311365247
      ],
      "type": "VEC2"
    },
    {
      "bufferView": 0,
      "componentType": 5125,
      "count": 2778,
      "type": "SCALAR"
    },
    {
      "bufferView": 2,
      "byteOffset": 15024,
      "componentType": 5126,
      "count": 887,
      "max": [
        0.9959049820899963,
        0.9959049820899963,
        2.437793016433716
      ],
      "min": [
        -0.9959049224853516,
        -0.9959050416946411,
        -2.1728174686431885
      ],
      "type": "VEC3"
    },
    {
      "bufferView": 2,
      "byteOffset": 25668,
      "componentType": 5126,
      "count": 887,
      "max": [
        0.9220479726791382,
        0.9220479726791382,
        1.0
      ],
      "min": [
        -0.9220479726791382,
        -0.9220479726791382,
        -1.0
      ],
      "type": "VEC3"
    },
    {
      "bufferView": 3,
      "byteOffset": 10016,
      "componentType": 5126,
      "count": 887,
      "max": [
        1.0,
        1.0,
        0.9186767339706421,
        1.0
      ],
      "min": [
        -1.0,
        -0.9998570680618286,
        -0.9194608926773071,
        1.0
      ],
      "type": "VEC4"
    },
    {
      "bufferView": 1,
      "byteOffset": 5008,
      "componentType": 5126,
      "count": 887,
      "max": [
        0.9996927380561829,
        0.9953237771987915
      ],
      "min": [
        0.00030723988311365247,
        0.24001306295394897
      ],
      "type": "VEC2"
    },
    {
      "bufferView": 0,
      "byteOffset": 11112,
      "componentType": 5125,
      "count": 3042,
      "type": "SCALAR"
    }
  ],
  "asset": {
    "extras": {
      "author": "dwalsh (https://sketchfab.com/dwalsh)",
      "license": "CC-BY-4.0 (http://creativecommons.org/licenses/by/4.0/)",
      "source": "https://sketchfab.com/3d-models/energy-drink-game-ready-model-83676feb8b0a4589952cf3676299311b",
      "title": "Energy Drink Game Ready Model"
    },
    "generator": "Sketchfab-12.65.0",
    "version": "2.0"
  },
  "bufferViews": [
    {
      "buffer": 0,
      "byteLength": 23280,
      "name": "floatBufferViews",
      "target": 34963
    },
    {
      "buffer": 0,
      "byteLength": 12104,
      "byteOffset": 23280,
      "byteStride": 8,
      "name": "floatBufferViews",
      "target": 34962
    },
    {
      "buffer": 0,
      "byteLength": 36312,
      "byteOffset": 35384,
      "byteStride": 12,
      "name": "floatBufferViews",
      "target": 34962
    },
    {
      "buffer": 0,
      "byteLength": 24208,
      "byteOffset": 71696,
      "byteStride": 16,
      "name": "floatBufferViews",
      "target": 34962
    }
  ],
  "buffers": [
    {
      "byteLength": 95904,
      "uri": "scene.bin"
    }
  ],
  "images": [
    {
      "uri": "textures/Body_baseColor.png"
    },
    {
      "uri": "textures/Body_metallicRoughness.png"
    },
    {
      "uri": "textures/Body_normal.png"
    },
    {
      "uri": "textures/Alluminium_baseColor.png"
    },
    {
      "uri": "textures/Alluminium_metallicRoughness.png"
    },
    {
      "uri": "textures/Alluminium_normal.png"
    }
  ],
  "materials": [
    {
      "doubleSided": true,
      "name": "Body",
      "normalTexture": {
        "index": 2
      },
      "occlusionTexture": {
        "index": 1
      },
      "pbrMetallicRoughness": {
        "baseColorTexture": {
          "index": 0
        },
        "metallicRoughnessTexture": {
          "index": 1
        }
      }
    },
    {
      "doubleSided": true,
      "name": "Alluminium",
      "normalTexture": {
        "index": 5
      },
      "occlusionTexture": {
        "index": 4
      },
      "pbrMetallicRoughness": {
        "baseColorTexture": {
          "index": 3
        },
        "metallicRoughnessTexture": {
          "index": 4
        }
      }
    }
  ],
  "meshes": [
    {
      "name": "LowRes_Can_Body_0",
      "primitives": [
        {
          "attributes": {
            "NORMAL": 1,
            "POSITION": 0,
            "TANGENT": 2,
            "TEXCOORD_0": 3
          },
          "indices": 4,
          "material": 0,
          "mode": 4
        }
      ]
    },
    {
      "name": "LowRes_Can_Alluminium_0",
      "primitives": [
        {
          "attributes": {
            "NORMAL": 6,
            "POSITION": 5,
            "TANGENT": 7,
            "TEXCOORD_0": 8
          },
          "indices": 9,
          "material": 1,
          "mode": 4
        }
      ]
    }
  ],
  "nodes": [
    {
      "children": [
        1
      ],
      "matrix": [
        1.0,
        0.0,
        0.0,
        0.0,
        0.0,
        2.220446049250313e-16,
        -1.0,
        0.0,
        0.0,
        1.0,
        2.220446049250313e-16,
        0.0,
        0.0,
        0.0,
        0.0,
        1.0
      ],
      "name": "Sketchfab_model"
    },
    {
      "children": [
        2
      ],
      "matrix": [
        1.0,
        0.0,
        0.0,
        0.0,
        0.0,
        0.0,
        1.0,
        0.0,
        0.0,
        -1.0,
        0.0,
        0.0,
        0.0,
        0.0,
        0.0,
        1.0
      ],
      "name": "c6e5843912e641d78d5c6c602b94c08d.fbx"
    },
    {
      "children": [
        3
      ],
      "name": "RootNode"
    },
    {
      "children": [
        4,
        5
      ],
      "matrix": [
        4.944191932678223,
        0.0,
        0.0,
        0.0,
        0.0,
        -8.05511108715548e-07,
        -4.944191932678157,
        0.0,
        0.0,
        4.944191932678157,
        -8.05511108715548e-07,
        0.0,
        0.0,
        10.742237091064453,
        0.0,
        1.0
      ],
      "name": "LowRes_Can"
    },
    {
      "mesh": 0,
      "name": "LowRes_Can_Body_0"
    },
    {
      "mesh": 1,
      "name": "LowRes_Can_Alluminium_0"
    }
  ],
  "samplers": [
    {
      "magFilter": 9729,
      "minFilter": 9987,
      "wrapS": 10497,
      "wrapT": 10497
    }
  ],
  "scene": 0,
  "scenes": [
    {
      "name": "Sketchfab_Scene",
      "nodes": [
        0
      ]
    }
  ],
  "textures": [
    {
      "sampler": 0,
      "source": 0
    },
    {
      "sampler": 0,
      "source": 1
    },
    {
      "sampler": 0,
      "source": 2
    },
    {
      "sampler": 0,
      "source": 3
    },
    {
      "sampler": 0,
      "source": 4
    },
    {
      "sampler": 0,
      "source": 5
    }
  ]
}
